<svg xmlns="http://www.w3.org/2000/svg" viewBox="0 0 1000 760" width="1000" height="760"><defs><linearGradient id="hs" x1="0" y1="0" x2="0" y2="1"><stop offset="0" stop-color="#c4b393"/><stop offset="1" stop-color="#e9dec8"/></linearGradient></defs><rect width="1000" height="760" fill="url(#hs)"/><circle cx="720.0" cy="167.2" r="92" fill="#a9844f" opacity="0.18"/><rect x="60.0" y="148.79999999999995" width="200" height="520" fill="#2c3d38"/><rect x="89.8" y="165.5" width="18.8" height="16.7" fill="#efe7d6" opacity="0.9" rx="1"/><rect x="120.2" y="165.5" width="18.8" height="16.7" fill="#efe7d6" opacity="0.75" rx="1"/><rect x="150.6" y="165.5" width="18.8" height="16.7" fill="#efe7d6" opacity="0.9" rx="1"/><rect x="181.0" y="165.5" width="18.8" height="16.7" fill="#efe7d6" opacity="0.95" rx="1"/><rect x="211.4" y="165.5" width="18.8" height="16.7" fill="#efe7d6" opacity="0.95" rx="1"/><rect x="89.8" y="198.8" width="18.8" height="16.7" fill="#efe7d6" opacity="0.4" rx="1"/><rect x="120.2" y="198.8" width="18.8" height="16.7" fill="#efe7d6" opacity="0.95" rx="1"/><rect x="150.6" y="198.8" width="18.8" height="16.7" fill="#efe7d6" opacity="0.9" rx="1"/><rect x="181.0" y="198.8" width="18.8" height="16.7" fill="#efe7d6" opacity="0.9" rx="1"/><rect x="211.4" y="198.8" width="18.8" height="16.7" fill="#efe7d6" opacity="0.95" rx="1"/><rect x="89.8" y="232.1" width="18.8" height="16.7" fill="#efe7d6" opacity="0.4" rx="1"/><rect x="120.2" y="232.1" width="18.8" height="16.7" fill="#efe7d6" opacity="0.95" rx="1"/><rect x="150.6" y="232.1" width="18.8" height="16.7" fill="#efe7d6" opacity="0.95" rx="1"/><rect x="181.0" y="232.1" width="18.8" height="16.7" fill="#efe7d6" opacity="0.75" rx="1"/><rect x="211.4" y="232.1" width="18.8" height="16.7" fill="#efe7d6" opacity="0.9" rx="1"/><rect x="89.8" y="265.5" width="18.8" height="16.7" fill="#efe7d6" opacity="0.75" rx="1"/><rect x="120.2" y="265.5" width="18.8" height="16.7" fill="#efe7d6" opacity="0.75" rx="1"/><rect x="150.6" y="265.5" width="18.8" height="16.7" fill="#efe7d6" opacity="0.75" rx="1"/><rect x="181.0" y="265.5" width="18.8" height="16.7" fill="#efe7d6" opacity="0.4" rx="1"/><rect x="211.4" y="265.5" width="18.8" height="16.7" fill="#efe7d6" opacity="0.9" rx="1"/><rect x="89.8" y="298.8" width="18.8" height="16.7" fill="#efe7d6" opacity="0.95" rx="1"/><rect x="120.2" y="298.8" width="18.8" height="16.7" fill="#efe7d6" opacity="0.9" rx="1"/><rect x="150.6" y="298.8" width="18.8" height="16.7" fill="#efe7d6" opacity="0.4" rx="1"/><rect x="181.0" y="298.8" width="18.8" height="16.7" fill="#efe7d6" opacity="0.9" rx="1"/><rect x="211.4" y="298.8" width="18.8" height="16.7" fill="#efe7d6" opacity="0.9" rx="1"/><rect x="89.8" y="332.1" width="18.8" height="16.7" fill="#efe7d6" opacity="0.75" rx="1"/><rect x="120.2" y="332.1" width="18.8" height="16.7" fill="#efe7d6" opacity="0.75" rx="1"/><rect x="150.6" y="332.1" width="18.8" height="16.7" fill="#efe7d6" opacity="0.4" rx="1"/><rect x="181.0" y="332.1" width="18.8" height="16.7" fill="#efe7d6" opacity="0.9" rx="1"/><rect x="211.4" y="332.1" width="18.8" height="16.7" fill="#efe7d6" opacity="0.55" rx="1"/><rect x="89.8" y="365.5" width="18.8" height="16.7" fill="#efe7d6" opacity="0.75" rx="1"/><rect x="120.2" y="365.5" width="18.8" height="16.7" fill="#efe7d6" opacity="0.55" rx="1"/><rect x="150.6" y="365.5" width="18.8" height="16.7" fill="#efe7d6" opacity="0.4" rx="1"/><rect x="181.0" y="365.5" width="18.8" height="16.7" fill="#efe7d6" opacity="0.95" rx="1"/><rect x="211.4" y="365.5" width="18.8" height="16.7" fill="#efe7d6" opacity="0.9" rx="1"/><rect x="89.8" y="398.8" width="18.8" height="16.7" fill="#efe7d6" opacity="0.9" rx="1"/><rect x="120.2" y="398.8" width="18.8" height="16.7" fill="#efe7d6" opacity="0.9" rx="1"/><rect x="150.6" y="398.8" width="18.8" height="16.7" fill="#efe7d6" opacity="0.55" rx="1"/><rect x="181.0" y="398.8" width="18.8" height="16.7" fill="#efe7d6" opacity="0.4" rx="1"/><rect x="211.4" y="398.8" width="18.8" height="16.7" fill="#efe7d6" opacity="0.4" rx="1"/><rect x="89.8" y="432.1" width="18.8" height="16.7" fill="#efe7d6" opacity="0.75" rx="1"/><rect x="120.2" y="432.1" width="18.8" height="16.7" fill="#efe7d6" opacity="0.95" rx="1"/><rect x="150.6" y="432.1" width="18.8" height="16.7" fill="#efe7d6" opacity="0.55" rx="1"/><rect x="181.0" y="432.1" width="18.8" height="16.7" fill="#efe7d6" opacity="0.75" rx="1"/><rect x="211.4" y="432.1" width="18.8" height="16.7" fill="#efe7d6" opacity="0.4" rx="1"/><rect x="89.8" y="465.5" width="18.8" height="16.7" fill="#efe7d6" opacity="0.9" rx="1"/><rect x="120.2" y="465.5" width="18.8" height="16.7" fill="#efe7d6" opacity="0.9" rx="1"/><rect x="150.6" y="465.5" width="18.8" height="16.7" fill="#efe7d6" opacity="0.4" rx="1"/><rect x="181.0" y="465.5" width="18.8" height="16.7" fill="#efe7d6" opacity="0.55" rx="1"/><rect x="211.4" y="465.5" width="18.8" height="16.7" fill="#efe7d6" opacity="0.95" rx="1"/><rect x="89.8" y="498.8" width="18.8" height="16.7" fill="#efe7d6" opacity="0.55" rx="1"/><rect x="120.2" y="498.8" width="18.8" height="16.7" fill="#efe7d6" opacity="0.55" rx="1"/><rect x="150.6" y="498.8" width="18.8" height="16.7" fill="#efe7d6" opacity="0.75" rx="1"/><rect x="181.0" y="498.8" width="18.8" height="16.7" fill="#efe7d6" opacity="0.95" rx="1"/><rect x="211.4" y="498.8" width="18.8" height="16.7" fill="#efe7d6" opacity="0.4" rx="1"/><rect x="89.8" y="532.1" width="18.8" height="16.7" fill="#efe7d6" opacity="0.75" rx="1"/><rect x="120.2" y="532.1" width="18.8" height="16.7" fill="#efe7d6" opacity="0.4" rx="1"/><rect x="150.6" y="532.1" width="18.8" height="16.7" fill="#efe7d6" opacity="0.75" rx="1"/><rect x="181.0" y="532.1" width="18.8" height="16.7" fill="#efe7d6" opacity="0.9" rx="1"/><rect x="211.4" y="532.1" width="18.8" height="16.7" fill="#efe7d6" opacity="0.95" rx="1"/><rect x="89.8" y="565.5" width="18.8" height="16.7" fill="#efe7d6" opacity="0.55" rx="1"/><rect x="120.2" y="565.5" width="18.8" height="16.7" fill="#efe7d6" opacity="0.9" rx="1"/><rect x="150.6" y="565.5" width="18.8" height="16.7" fill="#efe7d6" opacity="0.9" rx="1"/><rect x="181.0" y="565.5" width="18.8" height="16.7" fill="#efe7d6" opacity="0.75" rx="1"/><rect x="211.4" y="565.5" width="18.8" height="16.7" fill="#efe7d6" opacity="0.95" rx="1"/><rect x="89.8" y="598.8" width="18.8" height="16.7" fill="#efe7d6" opacity="0.95" rx="1"/><rect x="120.2" y="598.8" width="18.8" height="16.7" fill="#efe7d6" opacity="0.9" rx="1"/><rect x="150.6" y="598.8" width="18.8" height="16.7" fill="#efe7d6" opacity="0.55" rx="1"/><rect x="181.0" y="598.8" width="18.8" height="16.7" fill="#efe7d6" opacity="0.75" rx="1"/><rect x="211.4" y="598.8" width="18.8" height="16.7" fill="#efe7d6" opacity="0.95" rx="1"/><rect x="89.8" y="632.1" width="18.8" height="16.7" fill="#efe7d6" opacity="0.55" rx="1"/><rect x="120.2" y="632.1" width="18.8" height="16.7" fill="#efe7d6" opacity="0.75" rx="1"/><rect x="150.6" y="632.1" width="18.8" height="16.7" fill="#efe7d6" opacity="0.95" rx="1"/><rect x="181.0" y="632.1" width="18.8" height="16.7" fill="#efe7d6" opacity="0.9" rx="1"/><rect x="211.4" y="632.1" width="18.8" height="16.7" fill="#efe7d6" opacity="0.55" rx="1"/><rect x="120.0" y="140.8" width="80.0" height="8" fill="#2c3d38"/><rect x="340.0" y="28.799999999999955" width="230" height="640" fill="#a9844f"/><rect x="373.1" y="46.0" width="18.1" height="17.2" fill="#efe7d6" opacity="0.95" rx="1"/><rect x="402.3" y="46.0" width="18.1" height="17.2" fill="#efe7d6" opacity="0.55" rx="1"/><rect x="431.4" y="46.0" width="18.1" height="17.2" fill="#efe7d6" opacity="0.95" rx="1"/><rect x="460.5" y="46.0" width="18.1" height="17.2" fill="#efe7d6" opacity="0.75" rx="1"/><rect x="489.7" y="46.0" width="18.1" height="17.2" fill="#efe7d6" opacity="0.9" rx="1"/><rect x="518.8" y="46.0" width="18.1" height="17.2" fill="#efe7d6" opacity="0.55" rx="1"/><rect x="373.1" y="80.4" width="18.1" height="17.2" fill="#efe7d6" opacity="0.4" rx="1"/><rect x="402.3" y="80.4" width="18.1" height="17.2" fill="#efe7d6" opacity="0.9" rx="1"/><rect x="431.4" y="80.4" width="18.1" height="17.2" fill="#efe7d6" opacity="0.75" rx="1"/><rect x="460.5" y="80.4" width="18.1" height="17.2" fill="#efe7d6" opacity="0.95" rx="1"/><rect x="489.7" y="80.4" width="18.1" height="17.2" fill="#efe7d6" opacity="0.75" rx="1"/><rect x="518.8" y="80.4" width="18.1" height="17.2" fill="#efe7d6" opacity="0.55" rx="1"/><rect x="373.1" y="114.8" width="18.1" height="17.2" fill="#efe7d6" opacity="0.75" rx="1"/><rect x="402.3" y="114.8" width="18.1" height="17.2" fill="#efe7d6" opacity="0.75" rx="1"/><rect x="431.4" y="114.8" width="18.1" height="17.2" fill="#efe7d6" opacity="0.95" rx="1"/><rect x="460.5" y="114.8" width="18.1" height="17.2" fill="#efe7d6" opacity="0.75" rx="1"/><rect x="489.7" y="114.8" width="18.1" height="17.2" fill="#efe7d6" opacity="0.55" rx="1"/><rect x="518.8" y="114.8" width="18.1" height="17.2" fill="#efe7d6" opacity="0.55" rx="1"/><rect x="373.1" y="149.2" width="18.1" height="17.2" fill="#efe7d6" opacity="0.9" rx="1"/><rect x="402.3" y="149.2" width="18.1" height="17.2" fill="#efe7d6" opacity="0.4" rx="1"/><rect x="431.4" y="149.2" width="18.1" height="17.2" fill="#efe7d6" opacity="0.95" rx="1"/><rect x="460.5" y="149.2" width="18.1" height="17.2" fill="#efe7d6" opacity="0.4" rx="1"/><rect x="489.7" y="149.2" width="18.1" height="17.2" fill="#efe7d6" opacity="0.75" rx="1"/><rect x="518.8" y="149.2" width="18.1" height="17.2" fill="#efe7d6" opacity="0.75" rx="1"/><rect x="373.1" y="183.6" width="18.1" height="17.2" fill="#efe7d6" opacity="0.95" rx="1"/><rect x="402.3" y="183.6" width="18.1" height="17.2" fill="#efe7d6" opacity="0.95" rx="1"/><rect x="431.4" y="183.6" width="18.1" height="17.2" fill="#efe7d6" opacity="0.9" rx="1"/><rect x="460.5" y="183.6" width="18.1" height="17.2" fill="#efe7d6" opacity="0.4" rx="1"/><rect x="489.7" y="183.6" width="18.1" height="17.2" fill="#efe7d6" opacity="0.75" rx="1"/><rect x="518.8" y="183.6" width="18.1" height="17.2" fill="#efe7d6" opacity="0.95" rx="1"/><rect x="373.1" y="218.0" width="18.1" height="17.2" fill="#efe7d6" opacity="0.9" rx="1"/><rect x="402.3" y="218.0" width="18.1" height="17.2" fill="#efe7d6" opacity="0.75" rx="1"/><rect x="431.4" y="218.0" width="18.1" height="17.2" fill="#efe7d6" opacity="0.9" rx="1"/><rect x="460.5" y="218.0" width="18.1" height="17.2" fill="#efe7d6" opacity="0.4" rx="1"/><rect x="489.7" y="218.0" width="18.1" height="17.2" fill="#efe7d6" opacity="0.75" rx="1"/><rect x="518.8" y="218.0" width="18.1" height="17.2" fill="#efe7d6" opacity="0.95" rx="1"/><rect x="373.1" y="252.5" width="18.1" height="17.2" fill="#efe7d6" opacity="0.9" rx="1"/><rect x="402.3" y="252.5" width="18.1" height="17.2" fill="#efe7d6" opacity="0.9" rx="1"/><rect x="431.4" y="252.5" width="18.1" height="17.2" fill="#efe7d6" opacity="0.75" rx="1"/><rect x="460.5" y="252.5" width="18.1" height="17.2" fill="#efe7d6" opacity="0.95" rx="1"/><rect x="489.7" y="252.5" width="18.1" height="17.2" fill="#efe7d6" opacity="0.95" rx="1"/><rect x="518.8" y="252.5" width="18.1" height="17.2" fill="#efe7d6" opacity="0.55" rx="1"/><rect x="373.1" y="286.9" width="18.1" height="17.2" fill="#efe7d6" opacity="0.9" rx="1"/><rect x="402.3" y="286.9" width="18.1" height="17.2" fill="#efe7d6" opacity="0.9" rx="1"/><rect x="431.4" y="286.9" width="18.1" height="17.2" fill="#efe7d6" opacity="0.75" rx="1"/><rect x="460.5" y="286.9" width="18.1" height="17.2" fill="#efe7d6" opacity="0.55" rx="1"/><rect x="489.7" y="286.9" width="18.1" height="17.2" fill="#efe7d6" opacity="0.75" rx="1"/><rect x="518.8" y="286.9" width="18.1" height="17.2" fill="#efe7d6" opacity="0.75" rx="1"/><rect x="373.1" y="321.3" width="18.1" height="17.2" fill="#efe7d6" opacity="0.4" rx="1"/><rect x="402.3" y="321.3" width="18.1" height="17.2" fill="#efe7d6" opacity="0.95" rx="1"/><rect x="431.4" y="321.3" width="18.1" height="17.2" fill="#efe7d6" opacity="0.9" rx="1"/><rect x="460.5" y="321.3" width="18.1" height="17.2" fill="#efe7d6" opacity="0.55" rx="1"/><rect x="489.7" y="321.3" width="18.1" height="17.2" fill="#efe7d6" opacity="0.95" rx="1"/><rect x="518.8" y="321.3" width="18.1" height="17.2" fill="#efe7d6" opacity="0.55" rx="1"/><rect x="373.1" y="355.7" width="18.1" height="17.2" fill="#efe7d6" opacity="0.55" rx="1"/><rect x="402.3" y="355.7" width="18.1" height="17.2" fill="#efe7d6" opacity="0.95" rx="1"/><rect x="431.4" y="355.7" width="18.1" height="17.2" fill="#efe7d6" opacity="0.75" rx="1"/><rect x="460.5" y="355.7" width="18.1" height="17.2" fill="#efe7d6" opacity="0.9" rx="1"/><rect x="489.7" y="355.7" width="18.1" height="17.2" fill="#efe7d6" opacity="0.9" rx="1"/><rect x="518.8" y="355.7" width="18.1" height="17.2" fill="#efe7d6" opacity="0.9" rx="1"/><rect x="373.1" y="390.1" width="18.1" height="17.2" fill="#efe7d6" opacity="0.55" rx="1"/><rect x="402.3" y="390.1" width="18.1" height="17.2" fill="#efe7d6" opacity="0.9" rx="1"/><rect x="431.4" y="390.1" width="18.1" height="17.2" fill="#efe7d6" opacity="0.55" rx="1"/><rect x="460.5" y="390.1" width="18.1" height="17.2" fill="#efe7d6" opacity="0.95" rx="1"/><rect x="489.7" y="390.1" width="18.1" height="17.2" fill="#efe7d6" opacity="0.9" rx="1"/><rect x="518.8" y="390.1" width="18.1" height="17.2" fill="#efe7d6" opacity="0.4" rx="1"/><rect x="373.1" y="424.5" width="18.1" height="17.2" fill="#efe7d6" opacity="0.75" rx="1"/><rect x="402.3" y="424.5" width="18.1" height="17.2" fill="#efe7d6" opacity="0.95" rx="1"/><rect x="431.4" y="424.5" width="18.1" height="17.2" fill="#efe7d6" opacity="0.55" rx="1"/><rect x="460.5" y="424.5" width="18.1" height="17.2" fill="#efe7d6" opacity="0.55" rx="1"/><rect x="489.7" y="424.5" width="18.1" height="17.2" fill="#efe7d6" opacity="0.95" rx="1"/><rect x="518.8" y="424.5" width="18.1" height="17.2" fill="#efe7d6" opacity="0.9" rx="1"/><rect x="373.1" y="458.9" width="18.1" height="17.2" fill="#efe7d6" opacity="0.9" rx="1"/><rect x="402.3" y="458.9" width="18.1" height="17.2" fill="#efe7d6" opacity="0.95" rx="1"/><rect x="431.4" y="458.9" width="18.1" height="17.2" fill="#efe7d6" opacity="0.75" rx="1"/><rect x="460.5" y="458.9" width="18.1" height="17.2" fill="#efe7d6" opacity="0.55" rx="1"/><rect x="489.7" y="458.9" width="18.1" height="17.2" fill="#efe7d6" opacity="0.4" rx="1"/><rect x="518.8" y="458.9" width="18.1" height="17.2" fill="#efe7d6" opacity="0.95" rx="1"/><rect x="373.1" y="493.3" width="18.1" height="17.2" fill="#efe7d6" opacity="0.75" rx="1"/><rect x="402.3" y="493.3" width="18.1" height="17.2" fill="#efe7d6" opacity="0.55" rx="1"/><rect x="431.4" y="493.3" width="18.1" height="17.2" fill="#efe7d6" opacity="0.55" rx="1"/><rect x="460.5" y="493.3" width="18.1" height="17.2" fill="#efe7d6" opacity="0.95" rx="1"/><rect x="489.7" y="493.3" width="18.1" height="17.2" fill="#efe7d6" opacity="0.9" rx="1"/><rect x="518.8" y="493.3" width="18.1" height="17.2" fill="#efe7d6" opacity="0.95" rx="1"/><rect x="373.1" y="527.7" width="18.1" height="17.2" fill="#efe7d6" opacity="0.75" rx="1"/><rect x="402.3" y="527.7" width="18.1" height="17.2" fill="#efe7d6" opacity="0.95" rx="1"/><rect x="431.4" y="527.7" width="18.1" height="17.2" fill="#efe7d6" opacity="0.9" rx="1"/><rect x="460.5" y="527.7" width="18.1" height="17.2" fill="#efe7d6" opacity="0.95" rx="1"/><rect x="489.7" y="527.7" width="18.1" height="17.2" fill="#efe7d6" opacity="0.9" rx="1"/><rect x="518.8" y="527.7" width="18.1" height="17.2" fill="#efe7d6" opacity="0.95" rx="1"/><rect x="373.1" y="562.1" width="18.1" height="17.2" fill="#efe7d6" opacity="0.9" rx="1"/><rect x="402.3" y="562.1" width="18.1" height="17.2" fill="#efe7d6" opacity="0.9" rx="1"/><rect x="431.4" y="562.1" width="18.1" height="17.2" fill="#efe7d6" opacity="0.55" rx="1"/><rect x="460.5" y="562.1" width="18.1" height="17.2" fill="#efe7d6" opacity="0.75" rx="1"/><rect x="489.7" y="562.1" width="18.1" height="17.2" fill="#efe7d6" opacity="0.9" rx="1"/><rect x="518.8" y="562.1" width="18.1" height="17.2" fill="#efe7d6" opacity="0.4" rx="1"/><rect x="373.1" y="596.5" width="18.1" height="17.2" fill="#efe7d6" opacity="0.55" rx="1"/><rect x="402.3" y="596.5" width="18.1" height="17.2" fill="#efe7d6" opacity="0.55" rx="1"/><rect x="431.4" y="596.5" width="18.1" height="17.2" fill="#efe7d6" opacity="0.55" rx="1"/><rect x="460.5" y="596.5" width="18.1" height="17.2" fill="#efe7d6" opacity="0.55" rx="1"/><rect x="489.7" y="596.5" width="18.1" height="17.2" fill="#efe7d6" opacity="0.4" rx="1"/><rect x="518.8" y="596.5" width="18.1" height="17.2" fill="#efe7d6" opacity="0.9" rx="1"/><rect x="373.1" y="631.0" width="18.1" height="17.2" fill="#efe7d6" opacity="0.55" rx="1"/><rect x="402.3" y="631.0" width="18.1" height="17.2" fill="#efe7d6" opacity="0.55" rx="1"/><rect x="431.4" y="631.0" width="18.1" height="17.2" fill="#efe7d6" opacity="0.55" rx="1"/><rect x="460.5" y="631.0" width="18.1" height="17.2" fill="#efe7d6" opacity="0.55" rx="1"/><rect x="489.7" y="631.0" width="18.1" height="17.2" fill="#efe7d6" opacity="0.9" rx="1"/><rect x="518.8" y="631.0" width="18.1" height="17.2" fill="#efe7d6" opacity="0.4" rx="1"/><rect x="660.0" y="198.79999999999995" width="210" height="470" fill="#2c3d38"/><rect x="691.3" y="216.1" width="19.8" height="17.3" fill="#efe7d6" opacity="0.9" rx="1"/><rect x="723.2" y="216.1" width="19.8" height="17.3" fill="#efe7d6" opacity="0.9" rx="1"/><rect x="755.1" y="216.1" width="19.8" height="17.3" fill="#efe7d6" opacity="0.75" rx="1"/><rect x="787.0" y="216.1" width="19.8" height="17.3" fill="#efe7d6" opacity="0.9" rx="1"/><rect x="818.9" y="216.1" width="19.8" height="17.3" fill="#efe7d6" opacity="0.95" rx="1"/><rect x="691.3" y="250.6" width="19.8" height="17.3" fill="#efe7d6" opacity="0.95" rx="1"/><rect x="723.2" y="250.6" width="19.8" height="17.3" fill="#efe7d6" opacity="0.95" rx="1"/><rect x="755.1" y="250.6" width="19.8" height="17.3" fill="#efe7d6" opacity="0.55" rx="1"/><rect x="787.0" y="250.6" width="19.8" height="17.3" fill="#efe7d6" opacity="0.95" rx="1"/><rect x="818.9" y="250.6" width="19.8" height="17.3" fill="#efe7d6" opacity="0.95" rx="1"/><rect x="691.3" y="285.2" width="19.8" height="17.3" fill="#efe7d6" opacity="0.75" rx="1"/><rect x="723.2" y="285.2" width="19.8" height="17.3" fill="#efe7d6" opacity="0.95" rx="1"/><rect x="755.1" y="285.2" width="19.8" height="17.3" fill="#efe7d6" opacity="0.75" rx="1"/><rect x="787.0" y="285.2" width="19.8" height="17.3" fill="#efe7d6" opacity="0.9" rx="1"/><rect x="818.9" y="285.2" width="19.8" height="17.3" fill="#efe7d6" opacity="0.55" rx="1"/><rect x="691.3" y="319.8" width="19.8" height="17.3" fill="#efe7d6" opacity="0.75" rx="1"/><rect x="723.2" y="319.8" width="19.8" height="17.3" fill="#efe7d6" opacity="0.4" rx="1"/><rect x="755.1" y="319.8" width="19.8" height="17.3" fill="#efe7d6" opacity="0.75" rx="1"/><rect x="787.0" y="319.8" width="19.8" height="17.3" fill="#efe7d6" opacity="0.55" rx="1"/><rect x="818.9" y="319.8" width="19.8" height="17.3" fill="#efe7d6" opacity="0.55" rx="1"/><rect x="691.3" y="354.3" width="19.8" height="17.3" fill="#efe7d6" opacity="0.95" rx="1"/><rect x="723.2" y="354.3" width="19.8" height="17.3" fill="#efe7d6" opacity="0.55" rx="1"/><rect x="755.1" y="354.3" width="19.8" height="17.3" fill="#efe7d6" opacity="0.4" rx="1"/><rect x="787.0" y="354.3" width="19.8" height="17.3" fill="#efe7d6" opacity="0.9" rx="1"/><rect x="818.9" y="354.3" width="19.8" height="17.3" fill="#efe7d6" opacity="0.4" rx="1"/><rect x="691.3" y="388.9" width="19.8" height="17.3" fill="#efe7d6" opacity="0.75" rx="1"/><rect x="723.2" y="388.9" width="19.8" height="17.3" fill="#efe7d6" opacity="0.95" rx="1"/><rect x="755.1" y="388.9" width="19.8" height="17.3" fill="#efe7d6" opacity="0.75" rx="1"/><rect x="787.0" y="388.9" width="19.8" height="17.3" fill="#efe7d6" opacity="0.75" rx="1"/><rect x="818.9" y="388.9" width="19.8" height="17.3" fill="#efe7d6" opacity="0.95" rx="1"/><rect x="691.3" y="423.4" width="19.8" height="17.3" fill="#efe7d6" opacity="0.9" rx="1"/><rect x="723.2" y="423.4" width="19.8" height="17.3" fill="#efe7d6" opacity="0.9" rx="1"/><rect x="755.1" y="423.4" width="19.8" height="17.3" fill="#efe7d6" opacity="0.95" rx="1"/><rect x="787.0" y="423.4" width="19.8" height="17.3" fill="#efe7d6" opacity="0.4" rx="1"/><rect x="818.9" y="423.4" width="19.8" height="17.3" fill="#efe7d6" opacity="0.4" rx="1"/><rect x="691.3" y="458.0" width="19.8" height="17.3" fill="#efe7d6" opacity="0.55" rx="1"/><rect x="723.2" y="458.0" width="19.8" height="17.3" fill="#efe7d6" opacity="0.75" rx="1"/><rect x="755.1" y="458.0" width="19.8" height="17.3" fill="#efe7d6" opacity="0.95" rx="1"/><rect x="787.0" y="458.0" width="19.8" height="17.3" fill="#efe7d6" opacity="0.9" rx="1"/><rect x="818.9" y="458.0" width="19.8" height="17.3" fill="#efe7d6" opacity="0.9" rx="1"/><rect x="691.3" y="492.5" width="19.8" height="17.3" fill="#efe7d6" opacity="0.55" rx="1"/><rect x="723.2" y="492.5" width="19.8" height="17.3" fill="#efe7d6" opacity="0.4" rx="1"/><rect x="755.1" y="492.5" width="19.8" height="17.3" fill="#efe7d6" opacity="0.9" rx="1"/><rect x="787.0" y="492.5" width="19.8" height="17.3" fill="#efe7d6" opacity="0.75" rx="1"/><rect x="818.9" y="492.5" width="19.8" height="17.3" fill="#efe7d6" opacity="0.9" rx="1"/><rect x="691.3" y="527.1" width="19.8" height="17.3" fill="#efe7d6" opacity="0.95" rx="1"/><rect x="723.2" y="527.1" width="19.8" height="17.3" fill="#efe7d6" opacity="0.95" rx="1"/><rect x="755.1" y="527.1" width="19.8" height="17.3" fill="#efe7d6" opacity="0.95" rx="1"/><rect x="787.0" y="527.1" width="19.8" height="17.3" fill="#efe7d6" opacity="0.75" rx="1"/><rect x="818.9" y="527.1" width="19.8" height="17.3" fill="#efe7d6" opacity="0.75" rx="1"/><rect x="691.3" y="561.7" width="19.8" height="17.3" fill="#efe7d6" opacity="0.75" rx="1"/><rect x="723.2" y="561.7" width="19.8" height="17.3" fill="#efe7d6" opacity="0.95" rx="1"/><rect x="755.1" y="561.7" width="19.8" height="17.3" fill="#efe7d6" opacity="0.95" rx="1"/><rect x="787.0" y="561.7" width="19.8" height="17.3" fill="#efe7d6" opacity="0.4" rx="1"/><rect x="818.9" y="561.7" width="19.8" height="17.3" fill="#efe7d6" opacity="0.75" rx="1"/><rect x="691.3" y="596.2" width="19.8" height="17.3" fill="#efe7d6" opacity="0.4" rx="1"/><rect x="723.2" y="596.2" width="19.8" height="17.3" fill="#efe7d6" opacity="0.9" rx="1"/><rect x="755.1" y="596.2" width="19.8" height="17.3" fill="#efe7d6" opacity="0.55" rx="1"/><rect x="787.0" y="596.2" width="19.8" height="17.3" fill="#efe7d6" opacity="0.55" rx="1"/><rect x="818.9" y="596.2" width="19.8" height="17.3" fill="#efe7d6" opacity="0.55" rx="1"/><rect x="691.3" y="630.8" width="19.8" height="17.3" fill="#efe7d6" opacity="0.4" rx="1"/><rect x="723.2" y="630.8" width="19.8" height="17.3" fill="#efe7d6" opacity="0.55" rx="1"/><rect x="755.1" y="630.8" width="19.8" height="17.3" fill="#efe7d6" opacity="0.55" rx="1"/><rect x="787.0" y="630.8" width="19.8" height="17.3" fill="#efe7d6" opacity="0.55" rx="1"/><rect x="818.9" y="630.8" width="19.8" height="17.3" fill="#efe7d6" opacity="0.55" rx="1"/><rect x="723.0" y="190.8" width="84.0" height="8" fill="#2c3d38"/><rect x="0" y="668.8" width="1000" height="91.20000000000005" fill="#2c3d38"/></svg>