<svg xmlns="http://www.w3.org/2000/svg" viewBox="0 0 800 600" width="800" height="600"><defs><linearGradient id="sky9" x1="0" y1="0" x2="0" y2="1"><stop offset="0" stop-color="#d2c3a8"/><stop offset="1" stop-color="#efe6d2"/></linearGradient><linearGradient id="gr9" x1="0" y1="0" x2="0" y2="1"><stop offset="0" stop-color="#445049" stop-opacity="0.0"/><stop offset="1" stop-color="#445049" stop-opacity="0.25"/></linearGradient></defs><rect width="800" height="600" fill="url(#sky9)"/><circle cx="624.0" cy="156.0" r="64" fill="#a9844f" opacity="0.16"/><rect x="250.0" y="341.99999999999994" width="300" height="150" fill="#445049"/><polygon points="230.0,341.99999999999994 570.0,341.99999999999994 400.0,251.99999999999994" fill="#a9844f"/><rect x="290.0" y="369.99999999999994" width="46" height="44" fill="#f4eddc" opacity="0.85" rx="2"/><line x1="313.0" y1="369.99999999999994" x2="313.0" y2="413.99999999999994" stroke="#445049" stroke-width="2"/><rect x="290.0" y="433.99999999999994" width="46" height="44" fill="#f4eddc" opacity="0.85" rx="2"/><line x1="313.0" y1="433.99999999999994" x2="313.0" y2="477.99999999999994" stroke="#445049" stroke-width="2"/><rect x="380.0" y="369.99999999999994" width="46" height="44" fill="#f4eddc" opacity="0.85" rx="2"/><line x1="403.0" y1="369.99999999999994" x2="403.0" y2="413.99999999999994" stroke="#445049" stroke-width="2"/><rect x="380.0" y="433.99999999999994" width="46" height="44" fill="#f4eddc" opacity="0.85" rx="2"/><line x1="403.0" y1="433.99999999999994" x2="403.0" y2="477.99999999999994" stroke="#445049" stroke-width="2"/><rect x="470.0" y="369.99999999999994" width="46" height="44" fill="#f4eddc" opacity="0.85" rx="2"/><line x1="493.0" y1="369.99999999999994" x2="493.0" y2="413.99999999999994" stroke="#445049" stroke-width="2"/><rect x="470.0" y="433.99999999999994" width="46" height="44" fill="#f4eddc" opacity="0.85" rx="2"/><line x1="493.0" y1="433.99999999999994" x2="493.0" y2="477.99999999999994" stroke="#445049" stroke-width="2"/><rect x="374.0" y="433.99999999999994" width="52" height="58" fill="#a9844f" opacity="0.7"/><rect x="0" y="491.99999999999994" width="800" height="108.00000000000006" fill="#445049" opacity="0.85"/><rect x="0" y="491.99999999999994" width="800" height="108.00000000000006" fill="url(#gr9)"/><circle cx="561" cy="445.99999999999994" r="23" fill="#445049" opacity="0.5"/><rect x="559" y="445.99999999999994" width="4" height="46" fill="#445049" opacity="0.5"/><circle cx="241" cy="463.99999999999994" r="14" fill="#445049" opacity="0.5"/><rect x="239" y="463.99999999999994" width="4" height="28" fill="#445049" opacity="0.5"/><circle cx="297" cy="458.99999999999994" r="16" fill="#445049" opacity="0.5"/><rect x="295" y="458.99999999999994" width="4" height="33" fill="#445049" opacity="0.5"/><circle cx="413" cy="453.99999999999994" r="19" fill="#445049" opacity="0.5"/><rect x="411" y="453.99999999999994" width="4" height="38" fill="#445049" opacity="0.5"/><circle cx="681" cy="451.99999999999994" r="20" fill="#445049" opacity="0.5"/><rect x="679" y="451.99999999999994" width="4" height="40" fill="#445049" opacity="0.5"/><circle cx="462" cy="456.99999999999994" r="18" fill="#445049" opacity="0.5"/><rect x="460" y="456.99999999999994" width="4" height="35" fill="#445049" opacity="0.5"/></svg>