<svg xmlns="http://www.w3.org/2000/svg" viewBox="0 0 800 600" width="800" height="600"><defs><linearGradient id="sky6" x1="0" y1="0" x2="0" y2="1"><stop offset="0" stop-color="#aeb9b6"/><stop offset="1" stop-color="#d6dad3"/></linearGradient><linearGradient id="gr6" x1="0" y1="0" x2="0" y2="1"><stop offset="0" stop-color="#2e3f3a" stop-opacity="0.0"/><stop offset="1" stop-color="#2e3f3a" stop-opacity="0.25"/></linearGradient></defs><rect width="800" height="600" fill="url(#sky6)"/><circle cx="624.0" cy="156.0" r="64" fill="#7d6a4a" opacity="0.16"/><rect x="240.0" y="71.99999999999994" width="150" height="420" fill="#2e3f3a"/><rect x="263.4" y="88.7" width="17.7" height="16.7" fill="#e8ece6" opacity="0.95" rx="1"/><rect x="291.9" y="88.7" width="17.7" height="16.7" fill="#e8ece6" opacity="0.55" rx="1"/><rect x="320.4" y="88.7" width="17.7" height="16.7" fill="#e8ece6" opacity="0.4" rx="1"/><rect x="348.9" y="88.7" width="17.7" height="16.7" fill="#e8ece6" opacity="0.4" rx="1"/><rect x="263.4" y="122.0" width="17.7" height="16.7" fill="#e8ece6" opacity="0.55" rx="1"/><rect x="291.9" y="122.0" width="17.7" height="16.7" fill="#e8ece6" opacity="0.4" rx="1"/><rect x="320.4" y="122.0" width="17.7" height="16.7" fill="#e8ece6" opacity="0.9" rx="1"/><rect x="348.9" y="122.0" width="17.7" height="16.7" fill="#e8ece6" opacity="0.9" rx="1"/><rect x="263.4" y="155.3" width="17.7" height="16.7" fill="#e8ece6" opacity="0.75" rx="1"/><rect x="291.9" y="155.3" width="17.7" height="16.7" fill="#e8ece6" opacity="0.9" rx="1"/><rect x="320.4" y="155.3" width="17.7" height="16.7" fill="#e8ece6" opacity="0.9" rx="1"/><rect x="348.9" y="155.3" width="17.7" height="16.7" fill="#e8ece6" opacity="0.55" rx="1"/><rect x="263.4" y="188.7" width="17.7" height="16.7" fill="#e8ece6" opacity="0.55" rx="1"/><rect x="291.9" y="188.7" width="17.7" height="16.7" fill="#e8ece6" opacity="0.9" rx="1"/><rect x="320.4" y="188.7" width="17.7" height="16.7" fill="#e8ece6" opacity="0.75" rx="1"/><rect x="348.9" y="188.7" width="17.7" height="16.7" fill="#e8ece6" opacity="0.55" rx="1"/><rect x="263.4" y="222.0" width="17.7" height="16.7" fill="#e8ece6" opacity="0.75" rx="1"/><rect x="291.9" y="222.0" width="17.7" height="16.7" fill="#e8ece6" opacity="0.95" rx="1"/><rect x="320.4" y="222.0" width="17.7" height="16.7" fill="#e8ece6" opacity="0.55" rx="1"/><rect x="348.9" y="222.0" width="17.7" height="16.7" fill="#e8ece6" opacity="0.95" rx="1"/><rect x="263.4" y="255.3" width="17.7" height="16.7" fill="#e8ece6" opacity="0.75" rx="1"/><rect x="291.9" y="255.3" width="17.7" height="16.7" fill="#e8ece6" opacity="0.4" rx="1"/><rect x="320.4" y="255.3" width="17.7" height="16.7" fill="#e8ece6" opacity="0.4" rx="1"/><rect x="348.9" y="255.3" width="17.7" height="16.7" fill="#e8ece6" opacity="0.4" rx="1"/><rect x="263.4" y="288.7" width="17.7" height="16.7" fill="#e8ece6" opacity="0.95" rx="1"/><rect x="291.9" y="288.7" width="17.7" height="16.7" fill="#e8ece6" opacity="0.55" rx="1"/><rect x="320.4" y="288.7" width="17.7" height="16.7" fill="#e8ece6" opacity="0.9" rx="1"/><rect x="348.9" y="288.7" width="17.7" height="16.7" fill="#e8ece6" opacity="0.55" rx="1"/><rect x="263.4" y="322.0" width="17.7" height="16.7" fill="#e8ece6" opacity="0.9" rx="1"/><rect x="291.9" y="322.0" width="17.7" height="16.7" fill="#e8ece6" opacity="0.75" rx="1"/><rect x="320.4" y="322.0" width="17.7" height="16.7" fill="#e8ece6" opacity="0.95" rx="1"/><rect x="348.9" y="322.0" width="17.7" height="16.7" fill="#e8ece6" opacity="0.9" rx="1"/><rect x="263.4" y="355.3" width="17.7" height="16.7" fill="#e8ece6" opacity="0.55" rx="1"/><rect x="291.9" y="355.3" width="17.7" height="16.7" fill="#e8ece6" opacity="0.9" rx="1"/><rect x="320.4" y="355.3" width="17.7" height="16.7" fill="#e8ece6" opacity="0.9" rx="1"/><rect x="348.9" y="355.3" width="17.7" height="16.7" fill="#e8ece6" opacity="0.55" rx="1"/><rect x="263.4" y="388.7" width="17.7" height="16.7" fill="#e8ece6" opacity="0.9" rx="1"/><rect x="291.9" y="388.7" width="17.7" height="16.7" fill="#e8ece6" opacity="0.4" rx="1"/><rect x="320.4" y="388.7" width="17.7" height="16.7" fill="#e8ece6" opacity="0.75" rx="1"/><rect x="348.9" y="388.7" width="17.7" height="16.7" fill="#e8ece6" opacity="0.9" rx="1"/><rect x="263.4" y="422.0" width="17.7" height="16.7" fill="#e8ece6" opacity="0.55" rx="1"/><rect x="291.9" y="422.0" width="17.7" height="16.7" fill="#e8ece6" opacity="0.9" rx="1"/><rect x="320.4" y="422.0" width="17.7" height="16.7" fill="#e8ece6" opacity="0.95" rx="1"/><rect x="348.9" y="422.0" width="17.7" height="16.7" fill="#e8ece6" opacity="0.9" rx="1"/><rect x="263.4" y="455.3" width="17.7" height="16.7" fill="#e8ece6" opacity="0.55" rx="1"/><rect x="291.9" y="455.3" width="17.7" height="16.7" fill="#e8ece6" opacity="0.4" rx="1"/><rect x="320.4" y="455.3" width="17.7" height="16.7" fill="#e8ece6" opacity="0.95" rx="1"/><rect x="348.9" y="455.3" width="17.7" height="16.7" fill="#e8ece6" opacity="0.55" rx="1"/><rect x="285.0" y="64.0" width="60.0" height="8" fill="#2e3f3a"/><rect x="416.0" y="161.99999999999994" width="180" height="330" fill="#7d6a4a"/><rect x="442.8" y="179.2" width="17.0" height="17.2" fill="#e8ece6" opacity="0.4" rx="1"/><rect x="470.2" y="179.2" width="17.0" height="17.2" fill="#e8ece6" opacity="0.75" rx="1"/><rect x="497.5" y="179.2" width="17.0" height="17.2" fill="#e8ece6" opacity="0.9" rx="1"/><rect x="524.9" y="179.2" width="17.0" height="17.2" fill="#e8ece6" opacity="0.4" rx="1"/><rect x="552.2" y="179.2" width="17.0" height="17.2" fill="#e8ece6" opacity="0.75" rx="1"/><rect x="442.8" y="213.6" width="17.0" height="17.2" fill="#e8ece6" opacity="0.9" rx="1"/><rect x="470.2" y="213.6" width="17.0" height="17.2" fill="#e8ece6" opacity="0.75" rx="1"/><rect x="497.5" y="213.6" width="17.0" height="17.2" fill="#e8ece6" opacity="0.55" rx="1"/><rect x="524.9" y="213.6" width="17.0" height="17.2" fill="#e8ece6" opacity="0.9" rx="1"/><rect x="552.2" y="213.6" width="17.0" height="17.2" fill="#e8ece6" opacity="0.75" rx="1"/><rect x="442.8" y="247.9" width="17.0" height="17.2" fill="#e8ece6" opacity="0.75" rx="1"/><rect x="470.2" y="247.9" width="17.0" height="17.2" fill="#e8ece6" opacity="0.55" rx="1"/><rect x="497.5" y="247.9" width="17.0" height="17.2" fill="#e8ece6" opacity="0.55" rx="1"/><rect x="524.9" y="247.9" width="17.0" height="17.2" fill="#e8ece6" opacity="0.4" rx="1"/><rect x="552.2" y="247.9" width="17.0" height="17.2" fill="#e8ece6" opacity="0.75" rx="1"/><rect x="442.8" y="282.3" width="17.0" height="17.2" fill="#e8ece6" opacity="0.55" rx="1"/><rect x="470.2" y="282.3" width="17.0" height="17.2" fill="#e8ece6" opacity="0.95" rx="1"/><rect x="497.5" y="282.3" width="17.0" height="17.2" fill="#e8ece6" opacity="0.4" rx="1"/><rect x="524.9" y="282.3" width="17.0" height="17.2" fill="#e8ece6" opacity="0.75" rx="1"/><rect x="552.2" y="282.3" width="17.0" height="17.2" fill="#e8ece6" opacity="0.55" rx="1"/><rect x="442.8" y="316.7" width="17.0" height="17.2" fill="#e8ece6" opacity="0.55" rx="1"/><rect x="470.2" y="316.7" width="17.0" height="17.2" fill="#e8ece6" opacity="0.9" rx="1"/><rect x="497.5" y="316.7" width="17.0" height="17.2" fill="#e8ece6" opacity="0.55" rx="1"/><rect x="524.9" y="316.7" width="17.0" height="17.2" fill="#e8ece6" opacity="0.9" rx="1"/><rect x="552.2" y="316.7" width="17.0" height="17.2" fill="#e8ece6" opacity="0.9" rx="1"/><rect x="442.8" y="351.1" width="17.0" height="17.2" fill="#e8ece6" opacity="0.9" rx="1"/><rect x="470.2" y="351.1" width="17.0" height="17.2" fill="#e8ece6" opacity="0.4" rx="1"/><rect x="497.5" y="351.1" width="17.0" height="17.2" fill="#e8ece6" opacity="0.4" rx="1"/><rect x="524.9" y="351.1" width="17.0" height="17.2" fill="#e8ece6" opacity="0.75" rx="1"/><rect x="552.2" y="351.1" width="17.0" height="17.2" fill="#e8ece6" opacity="0.4" rx="1"/><rect x="442.8" y="385.4" width="17.0" height="17.2" fill="#e8ece6" opacity="0.95" rx="1"/><rect x="470.2" y="385.4" width="17.0" height="17.2" fill="#e8ece6" opacity="0.75" rx="1"/><rect x="497.5" y="385.4" width="17.0" height="17.2" fill="#e8ece6" opacity="0.95" rx="1"/><rect x="524.9" y="385.4" width="17.0" height="17.2" fill="#e8ece6" opacity="0.9" rx="1"/><rect x="552.2" y="385.4" width="17.0" height="17.2" fill="#e8ece6" opacity="0.95" rx="1"/><rect x="442.8" y="419.8" width="17.0" height="17.2" fill="#e8ece6" opacity="0.95" rx="1"/><rect x="470.2" y="419.8" width="17.0" height="17.2" fill="#e8ece6" opacity="0.4" rx="1"/><rect x="497.5" y="419.8" width="17.0" height="17.2" fill="#e8ece6" opacity="0.95" rx="1"/><rect x="524.9" y="419.8" width="17.0" height="17.2" fill="#e8ece6" opacity="0.4" rx="1"/><rect x="552.2" y="419.8" width="17.0" height="17.2" fill="#e8ece6" opacity="0.55" rx="1"/><rect x="442.8" y="454.2" width="17.0" height="17.2" fill="#e8ece6" opacity="0.75" rx="1"/><rect x="470.2" y="454.2" width="17.0" height="17.2" fill="#e8ece6" opacity="0.75" rx="1"/><rect x="497.5" y="454.2" width="17.0" height="17.2" fill="#e8ece6" opacity="0.55" rx="1"/><rect x="524.9" y="454.2" width="17.0" height="17.2" fill="#e8ece6" opacity="0.75" rx="1"/><rect x="552.2" y="454.2" width="17.0" height="17.2" fill="#e8ece6" opacity="0.75" rx="1"/><rect x="96.0" y="241.99999999999994" width="120" height="250" fill="#2e3f3a"/><rect x="116.2" y="258.4" width="18.8" height="16.4" fill="#e8ece6" opacity="0.95" rx="1"/><rect x="146.6" y="258.4" width="18.8" height="16.4" fill="#e8ece6" opacity="0.55" rx="1"/><rect x="177.0" y="258.4" width="18.8" height="16.4" fill="#e8ece6" opacity="0.9" rx="1"/><rect x="116.2" y="291.3" width="18.8" height="16.4" fill="#e8ece6" opacity="0.75" rx="1"/><rect x="146.6" y="291.3" width="18.8" height="16.4" fill="#e8ece6" opacity="0.9" rx="1"/><rect x="177.0" y="291.3" width="18.8" height="16.4" fill="#e8ece6" opacity="0.9" rx="1"/><rect x="116.2" y="324.2" width="18.8" height="16.4" fill="#e8ece6" opacity="0.55" rx="1"/><rect x="146.6" y="324.2" width="18.8" height="16.4" fill="#e8ece6" opacity="0.95" rx="1"/><rect x="177.0" y="324.2" width="18.8" height="16.4" fill="#e8ece6" opacity="0.75" rx="1"/><rect x="116.2" y="357.1" width="18.8" height="16.4" fill="#e8ece6" opacity="0.9" rx="1"/><rect x="146.6" y="357.1" width="18.8" height="16.4" fill="#e8ece6" opacity="0.9" rx="1"/><rect x="177.0" y="357.1" width="18.8" height="16.4" fill="#e8ece6" opacity="0.95" rx="1"/><rect x="116.2" y="390.0" width="18.8" height="16.4" fill="#e8ece6" opacity="0.4" rx="1"/><rect x="146.6" y="390.0" width="18.8" height="16.4" fill="#e8ece6" opacity="0.55" rx="1"/><rect x="177.0" y="390.0" width="18.8" height="16.4" fill="#e8ece6" opacity="0.4" rx="1"/><rect x="116.2" y="422.9" width="18.8" height="16.4" fill="#e8ece6" opacity="0.75" rx="1"/><rect x="146.6" y="422.9" width="18.8" height="16.4" fill="#e8ece6" opacity="0.55" rx="1"/><rect x="177.0" y="422.9" width="18.8" height="16.4" fill="#e8ece6" opacity="0.9" rx="1"/><rect x="116.2" y="455.8" width="18.8" height="16.4" fill="#e8ece6" opacity="0.95" rx="1"/><rect x="146.6" y="455.8" width="18.8" height="16.4" fill="#e8ece6" opacity="0.75" rx="1"/><rect x="177.0" y="455.8" width="18.8" height="16.4" fill="#e8ece6" opacity="0.75" rx="1"/><rect x="132.0" y="234.0" width="48.0" height="8" fill="#2e3f3a"/><rect x="0" y="491.99999999999994" width="800" height="108.00000000000006" fill="#2e3f3a" opacity="0.85"/><rect x="0" y="491.99999999999994" width="800" height="108.00000000000006" fill="url(#gr6)"/><circle cx="295" cy="451.99999999999994" r="20" fill="#2e3f3a" opacity="0.5"/><rect x="293" y="451.99999999999994" width="4" height="40" fill="#2e3f3a" opacity="0.5"/><circle cx="23" cy="457.99999999999994" r="17" fill="#2e3f3a" opacity="0.5"/><rect x="21" y="457.99999999999994" width="4" height="34" fill="#2e3f3a" opacity="0.5"/><circle cx="392" cy="455.99999999999994" r="18" fill="#2e3f3a" opacity="0.5"/><rect x="390" y="455.99999999999994" width="4" height="36" fill="#2e3f3a" opacity="0.5"/><circle cx="580" cy="455.99999999999994" r="18" fill="#2e3f3a" opacity="0.5"/><rect x="578" y="455.99999999999994" width="4" height="36" fill="#2e3f3a" opacity="0.5"/><circle cx="270" cy="464.99999999999994" r="14" fill="#2e3f3a" opacity="0.5"/><rect x="268" y="464.99999999999994" width="4" height="27" fill="#2e3f3a" opacity="0.5"/><circle cx="336" cy="459.99999999999994" r="16" fill="#2e3f3a" opacity="0.5"/><rect x="334" y="459.99999999999994" width="4" height="32" fill="#2e3f3a" opacity="0.5"/></svg>