<svg xmlns="http://www.w3.org/2000/svg" viewBox="0 0 800 600" width="800" height="600"><defs><linearGradient id="sky3" x1="0" y1="0" x2="0" y2="1"><stop offset="0" stop-color="#b6c0c4"/><stop offset="1" stop-color="#dde3e3"/></linearGradient><linearGradient id="gr3" x1="0" y1="0" x2="0" y2="1"><stop offset="0" stop-color="#33433f" stop-opacity="0.0"/><stop offset="1" stop-color="#33433f" stop-opacity="0.25"/></linearGradient></defs><rect width="800" height="600" fill="url(#sky3)"/><circle cx="624.0" cy="156.0" r="64" fill="#8a9a8f" opacity="0.16"/><rect x="250.0" y="341.99999999999994" width="300" height="150" fill="#33433f"/><polygon points="230.0,341.99999999999994 570.0,341.99999999999994 400.0,251.99999999999994" fill="#8a9a8f"/><rect x="290.0" y="369.99999999999994" width="46" height="44" fill="#eef1ef" opacity="0.85" rx="2"/><line x1="313.0" y1="369.99999999999994" x2="313.0" y2="413.99999999999994" stroke="#33433f" stroke-width="2"/><rect x="290.0" y="433.99999999999994" width="46" height="44" fill="#eef1ef" opacity="0.85" rx="2"/><line x1="313.0" y1="433.99999999999994" x2="313.0" y2="477.99999999999994" stroke="#33433f" stroke-width="2"/><rect x="380.0" y="369.99999999999994" width="46" height="44" fill="#eef1ef" opacity="0.85" rx="2"/><line x1="403.0" y1="369.99999999999994" x2="403.0" y2="413.99999999999994" stroke="#33433f" stroke-width="2"/><rect x="380.0" y="433.99999999999994" width="46" height="44" fill="#eef1ef" opacity="0.85" rx="2"/><line x1="403.0" y1="433.99999999999994" x2="403.0" y2="477.99999999999994" stroke="#33433f" stroke-width="2"/><rect x="470.0" y="369.99999999999994" width="46" height="44" fill="#eef1ef" opacity="0.85" rx="2"/><line x1="493.0" y1="369.99999999999994" x2="493.0" y2="413.99999999999994" stroke="#33433f" stroke-width="2"/><rect x="470.0" y="433.99999999999994" width="46" height="44" fill="#eef1ef" opacity="0.85" rx="2"/><line x1="493.0" y1="433.99999999999994" x2="493.0" y2="477.99999999999994" stroke="#33433f" stroke-width="2"/><rect x="374.0" y="433.99999999999994" width="52" height="58" fill="#8a9a8f" opacity="0.7"/><rect x="0" y="491.99999999999994" width="800" height="108.00000000000006" fill="#33433f" opacity="0.85"/><rect x="0" y="491.99999999999994" width="800" height="108.00000000000006" fill="url(#gr3)"/><circle cx="659" cy="446.99999999999994" r="22" fill="#33433f" opacity="0.5"/><rect x="657" y="446.99999999999994" width="4" height="45" fill="#33433f" opacity="0.5"/><circle cx="21" cy="450.99999999999994" r="20" fill="#33433f" opacity="0.5"/><rect x="19" y="450.99999999999994" width="4" height="41" fill="#33433f" opacity="0.5"/><circle cx="688" cy="454.99999999999994" r="18" fill="#33433f" opacity="0.5"/><rect x="686" y="454.99999999999994" width="4" height="37" fill="#33433f" opacity="0.5"/><circle cx="678" cy="463.99999999999994" r="14" fill="#33433f" opacity="0.5"/><rect x="676" y="463.99999999999994" width="4" height="28" fill="#33433f" opacity="0.5"/><circle cx="696" cy="462.99999999999994" r="14" fill="#33433f" opacity="0.5"/><rect x="694" y="462.99999999999994" width="4" height="29" fill="#33433f" opacity="0.5"/><circle cx="417" cy="459.99999999999994" r="16" fill="#33433f" opacity="0.5"/><rect x="415" y="459.99999999999994" width="4" height="32" fill="#33433f" opacity="0.5"/></svg>