<svg xmlns="http://www.w3.org/2000/svg" viewBox="0 0 800 600" width="800" height="600"><defs><linearGradient id="sky1" x1="0" y1="0" x2="0" y2="1"><stop offset="0" stop-color="#aeb9b6"/><stop offset="1" stop-color="#d6dad3"/></linearGradient><linearGradient id="gr1" x1="0" y1="0" x2="0" y2="1"><stop offset="0" stop-color="#2e3f3a" stop-opacity="0.0"/><stop offset="1" stop-color="#2e3f3a" stop-opacity="0.25"/></linearGradient></defs><rect width="800" height="600" fill="url(#sky1)"/><circle cx="624.0" cy="156.0" r="64" fill="#7d6a4a" opacity="0.16"/><rect x="80.0" y="191.99999999999994" width="150" height="300" fill="#2e3f3a"/><rect x="103.4" y="209.4" width="17.7" height="17.4" fill="#e8ece6" opacity="0.55" rx="1"/><rect x="131.9" y="209.4" width="17.7" height="17.4" fill="#e8ece6" opacity="0.75" rx="1"/><rect x="160.4" y="209.4" width="17.7" height="17.4" fill="#e8ece6" opacity="0.95" rx="1"/><rect x="188.9" y="209.4" width="17.7" height="17.4" fill="#e8ece6" opacity="0.9" rx="1"/><rect x="103.4" y="244.3" width="17.7" height="17.4" fill="#e8ece6" opacity="0.9" rx="1"/><rect x="131.9" y="244.3" width="17.7" height="17.4" fill="#e8ece6" opacity="0.4" rx="1"/><rect x="160.4" y="244.3" width="17.7" height="17.4" fill="#e8ece6" opacity="0.9" rx="1"/><rect x="188.9" y="244.3" width="17.7" height="17.4" fill="#e8ece6" opacity="0.55" rx="1"/><rect x="103.4" y="279.2" width="17.7" height="17.4" fill="#e8ece6" opacity="0.4" rx="1"/><rect x="131.9" y="279.2" width="17.7" height="17.4" fill="#e8ece6" opacity="0.9" rx="1"/><rect x="160.4" y="279.2" width="17.7" height="17.4" fill="#e8ece6" opacity="0.4" rx="1"/><rect x="188.9" y="279.2" width="17.7" height="17.4" fill="#e8ece6" opacity="0.75" rx="1"/><rect x="103.4" y="314.1" width="17.7" height="17.4" fill="#e8ece6" opacity="0.9" rx="1"/><rect x="131.9" y="314.1" width="17.7" height="17.4" fill="#e8ece6" opacity="0.9" rx="1"/><rect x="160.4" y="314.1" width="17.7" height="17.4" fill="#e8ece6" opacity="0.95" rx="1"/><rect x="188.9" y="314.1" width="17.7" height="17.4" fill="#e8ece6" opacity="0.95" rx="1"/><rect x="103.4" y="349.0" width="17.7" height="17.4" fill="#e8ece6" opacity="0.9" rx="1"/><rect x="131.9" y="349.0" width="17.7" height="17.4" fill="#e8ece6" opacity="0.75" rx="1"/><rect x="160.4" y="349.0" width="17.7" height="17.4" fill="#e8ece6" opacity="0.9" rx="1"/><rect x="188.9" y="349.0" width="17.7" height="17.4" fill="#e8ece6" opacity="0.4" rx="1"/><rect x="103.4" y="383.9" width="17.7" height="17.4" fill="#e8ece6" opacity="0.95" rx="1"/><rect x="131.9" y="383.9" width="17.7" height="17.4" fill="#e8ece6" opacity="0.9" rx="1"/><rect x="160.4" y="383.9" width="17.7" height="17.4" fill="#e8ece6" opacity="0.4" rx="1"/><rect x="188.9" y="383.9" width="17.7" height="17.4" fill="#e8ece6" opacity="0.9" rx="1"/><rect x="103.4" y="418.7" width="17.7" height="17.4" fill="#e8ece6" opacity="0.75" rx="1"/><rect x="131.9" y="418.7" width="17.7" height="17.4" fill="#e8ece6" opacity="0.4" rx="1"/><rect x="160.4" y="418.7" width="17.7" height="17.4" fill="#e8ece6" opacity="0.9" rx="1"/><rect x="188.9" y="418.7" width="17.7" height="17.4" fill="#e8ece6" opacity="0.4" rx="1"/><rect x="103.4" y="453.6" width="17.7" height="17.4" fill="#e8ece6" opacity="0.4" rx="1"/><rect x="131.9" y="453.6" width="17.7" height="17.4" fill="#e8ece6" opacity="0.95" rx="1"/><rect x="160.4" y="453.6" width="17.7" height="17.4" fill="#e8ece6" opacity="0.9" rx="1"/><rect x="188.9" y="453.6" width="17.7" height="17.4" fill="#e8ece6" opacity="0.75" rx="1"/><rect x="125.0" y="184.0" width="60.0" height="8" fill="#2e3f3a"/><rect x="288.0" y="111.99999999999994" width="170" height="380" fill="#7d6a4a"/><rect x="313.3" y="129.9" width="16.0" height="17.9" fill="#e8ece6" opacity="0.9" rx="1"/><rect x="339.1" y="129.9" width="16.0" height="17.9" fill="#e8ece6" opacity="0.4" rx="1"/><rect x="365.0" y="129.9" width="16.0" height="17.9" fill="#e8ece6" opacity="0.75" rx="1"/><rect x="390.8" y="129.9" width="16.0" height="17.9" fill="#e8ece6" opacity="0.55" rx="1"/><rect x="416.7" y="129.9" width="16.0" height="17.9" fill="#e8ece6" opacity="0.95" rx="1"/><rect x="313.3" y="165.8" width="16.0" height="17.9" fill="#e8ece6" opacity="0.75" rx="1"/><rect x="339.1" y="165.8" width="16.0" height="17.9" fill="#e8ece6" opacity="0.4" rx="1"/><rect x="365.0" y="165.8" width="16.0" height="17.9" fill="#e8ece6" opacity="0.9" rx="1"/><rect x="390.8" y="165.8" width="16.0" height="17.9" fill="#e8ece6" opacity="0.4" rx="1"/><rect x="416.7" y="165.8" width="16.0" height="17.9" fill="#e8ece6" opacity="0.55" rx="1"/><rect x="313.3" y="201.6" width="16.0" height="17.9" fill="#e8ece6" opacity="0.4" rx="1"/><rect x="339.1" y="201.6" width="16.0" height="17.9" fill="#e8ece6" opacity="0.75" rx="1"/><rect x="365.0" y="201.6" width="16.0" height="17.9" fill="#e8ece6" opacity="0.9" rx="1"/><rect x="390.8" y="201.6" width="16.0" height="17.9" fill="#e8ece6" opacity="0.4" rx="1"/><rect x="416.7" y="201.6" width="16.0" height="17.9" fill="#e8ece6" opacity="0.4" rx="1"/><rect x="313.3" y="237.5" width="16.0" height="17.9" fill="#e8ece6" opacity="0.75" rx="1"/><rect x="339.1" y="237.5" width="16.0" height="17.9" fill="#e8ece6" opacity="0.55" rx="1"/><rect x="365.0" y="237.5" width="16.0" height="17.9" fill="#e8ece6" opacity="0.9" rx="1"/><rect x="390.8" y="237.5" width="16.0" height="17.9" fill="#e8ece6" opacity="0.4" rx="1"/><rect x="416.7" y="237.5" width="16.0" height="17.9" fill="#e8ece6" opacity="0.9" rx="1"/><rect x="313.3" y="273.3" width="16.0" height="17.9" fill="#e8ece6" opacity="0.4" rx="1"/><rect x="339.1" y="273.3" width="16.0" height="17.9" fill="#e8ece6" opacity="0.9" rx="1"/><rect x="365.0" y="273.3" width="16.0" height="17.9" fill="#e8ece6" opacity="0.4" rx="1"/><rect x="390.8" y="273.3" width="16.0" height="17.9" fill="#e8ece6" opacity="0.75" rx="1"/><rect x="416.7" y="273.3" width="16.0" height="17.9" fill="#e8ece6" opacity="0.95" rx="1"/><rect x="313.3" y="309.2" width="16.0" height="17.9" fill="#e8ece6" opacity="0.4" rx="1"/><rect x="339.1" y="309.2" width="16.0" height="17.9" fill="#e8ece6" opacity="0.95" rx="1"/><rect x="365.0" y="309.2" width="16.0" height="17.9" fill="#e8ece6" opacity="0.55" rx="1"/><rect x="390.8" y="309.2" width="16.0" height="17.9" fill="#e8ece6" opacity="0.95" rx="1"/><rect x="416.7" y="309.2" width="16.0" height="17.9" fill="#e8ece6" opacity="0.4" rx="1"/><rect x="313.3" y="345.0" width="16.0" height="17.9" fill="#e8ece6" opacity="0.95" rx="1"/><rect x="339.1" y="345.0" width="16.0" height="17.9" fill="#e8ece6" opacity="0.55" rx="1"/><rect x="365.0" y="345.0" width="16.0" height="17.9" fill="#e8ece6" opacity="0.55" rx="1"/><rect x="390.8" y="345.0" width="16.0" height="17.9" fill="#e8ece6" opacity="0.75" rx="1"/><rect x="416.7" y="345.0" width="16.0" height="17.9" fill="#e8ece6" opacity="0.75" rx="1"/><rect x="313.3" y="380.9" width="16.0" height="17.9" fill="#e8ece6" opacity="0.75" rx="1"/><rect x="339.1" y="380.9" width="16.0" height="17.9" fill="#e8ece6" opacity="0.9" rx="1"/><rect x="365.0" y="380.9" width="16.0" height="17.9" fill="#e8ece6" opacity="0.4" rx="1"/><rect x="390.8" y="380.9" width="16.0" height="17.9" fill="#e8ece6" opacity="0.55" rx="1"/><rect x="416.7" y="380.9" width="16.0" height="17.9" fill="#e8ece6" opacity="0.4" rx="1"/><rect x="313.3" y="416.7" width="16.0" height="17.9" fill="#e8ece6" opacity="0.95" rx="1"/><rect x="339.1" y="416.7" width="16.0" height="17.9" fill="#e8ece6" opacity="0.55" rx="1"/><rect x="365.0" y="416.7" width="16.0" height="17.9" fill="#e8ece6" opacity="0.95" rx="1"/><rect x="390.8" y="416.7" width="16.0" height="17.9" fill="#e8ece6" opacity="0.55" rx="1"/><rect x="416.7" y="416.7" width="16.0" height="17.9" fill="#e8ece6" opacity="0.4" rx="1"/><rect x="313.3" y="452.6" width="16.0" height="17.9" fill="#e8ece6" opacity="0.9" rx="1"/><rect x="339.1" y="452.6" width="16.0" height="17.9" fill="#e8ece6" opacity="0.9" rx="1"/><rect x="365.0" y="452.6" width="16.0" height="17.9" fill="#e8ece6" opacity="0.4" rx="1"/><rect x="390.8" y="452.6" width="16.0" height="17.9" fill="#e8ece6" opacity="0.95" rx="1"/><rect x="416.7" y="452.6" width="16.0" height="17.9" fill="#e8ece6" opacity="0.75" rx="1"/><rect x="496.0" y="171.99999999999994" width="180" height="320" fill="#2e3f3a"/><rect x="522.8" y="188.7" width="17.0" height="16.7" fill="#e8ece6" opacity="0.55" rx="1"/><rect x="550.2" y="188.7" width="17.0" height="16.7" fill="#e8ece6" opacity="0.75" rx="1"/><rect x="577.5" y="188.7" width="17.0" height="16.7" fill="#e8ece6" opacity="0.95" rx="1"/><rect x="604.9" y="188.7" width="17.0" height="16.7" fill="#e8ece6" opacity="0.95" rx="1"/><rect x="632.2" y="188.7" width="17.0" height="16.7" fill="#e8ece6" opacity="0.9" rx="1"/><rect x="522.8" y="222.0" width="17.0" height="16.7" fill="#e8ece6" opacity="0.9" rx="1"/><rect x="550.2" y="222.0" width="17.0" height="16.7" fill="#e8ece6" opacity="0.4" rx="1"/><rect x="577.5" y="222.0" width="17.0" height="16.7" fill="#e8ece6" opacity="0.4" rx="1"/><rect x="604.9" y="222.0" width="17.0" height="16.7" fill="#e8ece6" opacity="0.55" rx="1"/><rect x="632.2" y="222.0" width="17.0" height="16.7" fill="#e8ece6" opacity="0.55" rx="1"/><rect x="522.8" y="255.3" width="17.0" height="16.7" fill="#e8ece6" opacity="0.55" rx="1"/><rect x="550.2" y="255.3" width="17.0" height="16.7" fill="#e8ece6" opacity="0.4" rx="1"/><rect x="577.5" y="255.3" width="17.0" height="16.7" fill="#e8ece6" opacity="0.95" rx="1"/><rect x="604.9" y="255.3" width="17.0" height="16.7" fill="#e8ece6" opacity="0.4" rx="1"/><rect x="632.2" y="255.3" width="17.0" height="16.7" fill="#e8ece6" opacity="0.95" rx="1"/><rect x="522.8" y="288.7" width="17.0" height="16.7" fill="#e8ece6" opacity="0.9" rx="1"/><rect x="550.2" y="288.7" width="17.0" height="16.7" fill="#e8ece6" opacity="0.9" rx="1"/><rect x="577.5" y="288.7" width="17.0" height="16.7" fill="#e8ece6" opacity="0.55" rx="1"/><rect x="604.9" y="288.7" width="17.0" height="16.7" fill="#e8ece6" opacity="0.95" rx="1"/><rect x="632.2" y="288.7" width="17.0" height="16.7" fill="#e8ece6" opacity="0.9" rx="1"/><rect x="522.8" y="322.0" width="17.0" height="16.7" fill="#e8ece6" opacity="0.9" rx="1"/><rect x="550.2" y="322.0" width="17.0" height="16.7" fill="#e8ece6" opacity="0.55" rx="1"/><rect x="577.5" y="322.0" width="17.0" height="16.7" fill="#e8ece6" opacity="0.4" rx="1"/><rect x="604.9" y="322.0" width="17.0" height="16.7" fill="#e8ece6" opacity="0.95" rx="1"/><rect x="632.2" y="322.0" width="17.0" height="16.7" fill="#e8ece6" opacity="0.55" rx="1"/><rect x="522.8" y="355.3" width="17.0" height="16.7" fill="#e8ece6" opacity="0.95" rx="1"/><rect x="550.2" y="355.3" width="17.0" height="16.7" fill="#e8ece6" opacity="0.55" rx="1"/><rect x="577.5" y="355.3" width="17.0" height="16.7" fill="#e8ece6" opacity="0.9" rx="1"/><rect x="604.9" y="355.3" width="17.0" height="16.7" fill="#e8ece6" opacity="0.95" rx="1"/><rect x="632.2" y="355.3" width="17.0" height="16.7" fill="#e8ece6" opacity="0.55" rx="1"/><rect x="522.8" y="388.7" width="17.0" height="16.7" fill="#e8ece6" opacity="0.75" rx="1"/><rect x="550.2" y="388.7" width="17.0" height="16.7" fill="#e8ece6" opacity="0.4" rx="1"/><rect x="577.5" y="388.7" width="17.0" height="16.7" fill="#e8ece6" opacity="0.9" rx="1"/><rect x="604.9" y="388.7" width="17.0" height="16.7" fill="#e8ece6" opacity="0.95" rx="1"/><rect x="632.2" y="388.7" width="17.0" height="16.7" fill="#e8ece6" opacity="0.9" rx="1"/><rect x="522.8" y="422.0" width="17.0" height="16.7" fill="#e8ece6" opacity="0.75" rx="1"/><rect x="550.2" y="422.0" width="17.0" height="16.7" fill="#e8ece6" opacity="0.55" rx="1"/><rect x="577.5" y="422.0" width="17.0" height="16.7" fill="#e8ece6" opacity="0.75" rx="1"/><rect x="604.9" y="422.0" width="17.0" height="16.7" fill="#e8ece6" opacity="0.75" rx="1"/><rect x="632.2" y="422.0" width="17.0" height="16.7" fill="#e8ece6" opacity="0.95" rx="1"/><rect x="522.8" y="455.3" width="17.0" height="16.7" fill="#e8ece6" opacity="0.95" rx="1"/><rect x="550.2" y="455.3" width="17.0" height="16.7" fill="#e8ece6" opacity="0.95" rx="1"/><rect x="577.5" y="455.3" width="17.0" height="16.7" fill="#e8ece6" opacity="0.9" rx="1"/><rect x="604.9" y="455.3" width="17.0" height="16.7" fill="#e8ece6" opacity="0.75" rx="1"/><rect x="632.2" y="455.3" width="17.0" height="16.7" fill="#e8ece6" opacity="0.95" rx="1"/><rect x="550.0" y="164.0" width="72.0" height="8" fill="#2e3f3a"/><rect x="0" y="491.99999999999994" width="800" height="108.00000000000006" fill="#2e3f3a" opacity="0.85"/><rect x="0" y="491.99999999999994" width="800" height="108.00000000000006" fill="url(#gr1)"/><circle cx="431" cy="448.99999999999994" r="22" fill="#2e3f3a" opacity="0.5"/><rect x="429" y="448.99999999999994" width="4" height="43" fill="#2e3f3a" opacity="0.5"/><circle cx="304" cy="461.99999999999994" r="15" fill="#2e3f3a" opacity="0.5"/><rect x="302" y="461.99999999999994" width="4" height="30" fill="#2e3f3a" opacity="0.5"/><circle cx="460" cy="448.99999999999994" r="22" fill="#2e3f3a" opacity="0.5"/><rect x="458" y="448.99999999999994" width="4" height="43" fill="#2e3f3a" opacity="0.5"/><circle cx="305" cy="452.99999999999994" r="20" fill="#2e3f3a" opacity="0.5"/><rect x="303" y="452.99999999999994" width="4" height="39" fill="#2e3f3a" opacity="0.5"/><circle cx="387" cy="453.99999999999994" r="19" fill="#2e3f3a" opacity="0.5"/><rect x="385" y="453.99999999999994" width="4" height="38" fill="#2e3f3a" opacity="0.5"/><circle cx="256" cy="461.99999999999994" r="15" fill="#2e3f3a" opacity="0.5"/><rect x="254" y="461.99999999999994" width="4" height="30" fill="#2e3f3a" opacity="0.5"/></svg>