<svg xmlns="http://www.w3.org/2000/svg" viewBox="0 0 800 600" width="800" height="600"><defs><linearGradient id="sky5" x1="0" y1="0" x2="0" y2="1"><stop offset="0" stop-color="#cdbfa6"/><stop offset="1" stop-color="#e7ddc9"/></linearGradient><linearGradient id="gr5" x1="0" y1="0" x2="0" y2="1"><stop offset="0" stop-color="#3a4a45" stop-opacity="0.0"/><stop offset="1" stop-color="#3a4a45" stop-opacity="0.25"/></linearGradient></defs><rect width="800" height="600" fill="url(#sky5)"/><circle cx="624.0" cy="156.0" r="64" fill="#a9844f" opacity="0.16"/><rect x="250.0" y="341.99999999999994" width="300" height="150" fill="#3a4a45"/><polygon points="230.0,341.99999999999994 570.0,341.99999999999994 400.0,251.99999999999994" fill="#a9844f"/><rect x="290.0" y="369.99999999999994" width="46" height="44" fill="#f0e9da" opacity="0.85" rx="2"/><line x1="313.0" y1="369.99999999999994" x2="313.0" y2="413.99999999999994" stroke="#3a4a45" stroke-width="2"/><rect x="290.0" y="433.99999999999994" width="46" height="44" fill="#f0e9da" opacity="0.85" rx="2"/><line x1="313.0" y1="433.99999999999994" x2="313.0" y2="477.99999999999994" stroke="#3a4a45" stroke-width="2"/><rect x="380.0" y="369.99999999999994" width="46" height="44" fill="#f0e9da" opacity="0.85" rx="2"/><line x1="403.0" y1="369.99999999999994" x2="403.0" y2="413.99999999999994" stroke="#3a4a45" stroke-width="2"/><rect x="380.0" y="433.99999999999994" width="46" height="44" fill="#f0e9da" opacity="0.85" rx="2"/><line x1="403.0" y1="433.99999999999994" x2="403.0" y2="477.99999999999994" stroke="#3a4a45" stroke-width="2"/><rect x="470.0" y="369.99999999999994" width="46" height="44" fill="#f0e9da" opacity="0.85" rx="2"/><line x1="493.0" y1="369.99999999999994" x2="493.0" y2="413.99999999999994" stroke="#3a4a45" stroke-width="2"/><rect x="470.0" y="433.99999999999994" width="46" height="44" fill="#f0e9da" opacity="0.85" rx="2"/><line x1="493.0" y1="433.99999999999994" x2="493.0" y2="477.99999999999994" stroke="#3a4a45" stroke-width="2"/><rect x="374.0" y="433.99999999999994" width="52" height="58" fill="#a9844f" opacity="0.7"/><rect x="0" y="491.99999999999994" width="800" height="108.00000000000006" fill="#3a4a45" opacity="0.85"/><rect x="0" y="491.99999999999994" width="800" height="108.00000000000006" fill="url(#gr5)"/><circle cx="220" cy="454.99999999999994" r="18" fill="#3a4a45" opacity="0.5"/><rect x="218" y="454.99999999999994" width="4" height="37" fill="#3a4a45" opacity="0.5"/><circle cx="346" cy="463.99999999999994" r="14" fill="#3a4a45" opacity="0.5"/><rect x="344" y="463.99999999999994" width="4" height="28" fill="#3a4a45" opacity="0.5"/><circle cx="759" cy="454.99999999999994" r="18" fill="#3a4a45" opacity="0.5"/><rect x="757" y="454.99999999999994" width="4" height="37" fill="#3a4a45" opacity="0.5"/><circle cx="39" cy="455.99999999999994" r="18" fill="#3a4a45" opacity="0.5"/><rect x="37" y="455.99999999999994" width="4" height="36" fill="#3a4a45" opacity="0.5"/><circle cx="587" cy="451.99999999999994" r="20" fill="#3a4a45" opacity="0.5"/><rect x="585" y="451.99999999999994" width="4" height="40" fill="#3a4a45" opacity="0.5"/><circle cx="471" cy="465.99999999999994" r="13" fill="#3a4a45" opacity="0.5"/><rect x="469" y="465.99999999999994" width="4" height="26" fill="#3a4a45" opacity="0.5"/></svg>